<?xml version="1.0" encoding="UTF-8"?>
<svg id="Capa_1" xmlns="http://www.w3.org/2000/svg" version="1.1" xmlns:v="https://svgstorm.com" viewBox="0 0 1024 1024">
  <!-- Generator: Adobe Illustrator 29.5.0, SVG Export Plug-In . SVG Version: 2.1.0 Build 137)  -->
  <defs>
    <style>
      .st0 {
        stroke: #606163;
      }

      .st0, .st1, .st2, .st3, .st4, .st5, .st6, .st7, .st8, .st9, .st10, .st11, .st12, .st13, .st14, .st15, .st16, .st17, .st18 {
        fill: none;
        stroke-width: .3px;
      }

      .st1 {
        stroke: #707070;
      }

      .st19 {
        fill: #6e6d6c;
      }

      .st2 {
        stroke: #7f7f7f;
      }

      .st20 {
        fill: #8b8a8a;
      }

      .st21 {
        fill: #79787a;
      }

      .st3 {
        stroke: #6d6d6e;
      }

      .st4 {
        stroke: #6e6d6c;
      }

      .st5 {
        stroke: #848385;
      }

      .st6 {
        stroke: #fdfdfd;
      }

      .st7 {
        stroke: #615f5f;
      }

      .st8 {
        stroke: #616061;
      }

      .st9 {
        stroke: #8e8d8e;
      }

      .st10 {
        stroke: #79787a;
      }

      .st22 {
        fill: #8a8a8a;
      }

      .st23 {
        fill: #6e6f6f;
      }

      .st11 {
        stroke: #8b8a8a;
      }

      .st24 {
        fill: #616061;
      }

      .st12 {
        stroke: #969796;
      }

      .st13 {
        stroke: #878688;
      }

      .st14 {
        stroke: #8a8989;
      }

      .st25 {
        fill: #615f5f;
      }

      .st26 {
        fill: #8e8d8e;
      }

      .st15 {
        stroke: #090909;
      }

      .st27 {
        fill: #969796;
      }

      .st28 {
        fill: #878688;
      }

      .st29 {
        fill: #6d6d6e;
      }

      .st30 {
        fill: #848385;
      }

      .st16 {
        stroke: #8a8a8a;
      }

      .st31 {
        fill: #7f7f7f;
      }

      .st32 {
        fill: #0081bf;
      }

      .st17 {
        stroke: #8d8e8d;
      }

      .st33 {
        fill: #8a8989;
      }

      .st34 {
        fill: #8d8e8d;
      }

      .st35 {
        fill: #606163;
      }

      .st18 {
        stroke: #6e6f6f;
      }

      .st36 {
        fill: #fdfdfd;
      }

      .st37 {
        fill: #707070;
      }
    </style>
  </defs>
  <path class="st15" d="M0,1024h1024V0H0v1024M707,151v35c15.11-.13,29.73,1.73,45,1-.63,15.25.83,29.95,1,45,14.6.72,28.55-1.1,43-1v20c2.39,24.64,1,51.58,1,77v43h-4c-10.06,3.53-25.85,1-37,1-31.86,0-63.4.06-95,1,.7-15.93-1.03-31.23-1-47h-45c-1.48-15.37-.92-31.28-1-47-67.83,1.03-137.38-2.25-204,2,1.67,43.6,1.67,90.47,0,134,1.94,2.77,8.42.56,12,1s10.15,0,14,0h270v46c15.3.47,31.09-1.06,46,1v23c.33,3.4,1,7.92,1,12,0,11.95,7.21,8.88,17,9s17.41-.09,27,0v43c1.44,14.85,1,31.42,1,47v32c0,5.72-.52,12.03-1,17,0,6.46.02,12.5,0,19s.06,13.47,0,20,.13,13.53,0,20,.3,12.64,0,19,.64,13.83,0,20,1.41,14.35,0,20,3.12,15.54,0,20c-2.06,2.95-16.26,1-20,1-8.27,0-15.87.58-24,1v33c0,5.91,1.36,9.13-5,10-13.74,1.88-28.19-1.41-42,0-.7,15.93,1.03,31.23,1,47h-388c.76-15.94-1.29-31.17-1-47h-45v-15c-.85-8.76.33-19.75-1-29-.22-.3-.65-.95-1-1-3.28.98-7.1,1-11,1-4.73,0-11.47.66-16,0s-12.9,2.1-16-1c-2.91-2.91-1-14.71-1-19v-164h138v43h45v94h204v-183h-295c.71-15.93-1.66-31.08-1-47h-25c-4.41,0-9.34-.65-13-1h-8v-45h-24c-3.45.33-18.43,3.67-21,0-3.21-4.58,1.36-14.08,0-20s.62-14.49,0-21,.28-14.22,0-21,.13-14.1,0-21,.06-14.04,0-21,.03-14.02,0-21,0-14.01,0-21,0-14,0-21,0-14,0-21v-42h45c-.63-15.25.83-29.95,1-45,14.72-.14,29.63.57,44-1v-46h389c2.15,1.5,1,8.44,1,11Z"/>
  <path class="st6" d="M227,462h45v45h8c4.41,0,9.34.65,13,1h25c-.66,15.92,1.71,31.07,1,47h295v183h-204v-94h-45v-43h-138v112c1.6,16.48,1,34.78,1,52v19h32c3.54,0,7.5-.5,11,0,.35.05.78.7,1,1,3.89,5.28,1,22.1,1,29v15h45c-.29,15.83,1.76,31.06,1,47h388c.03-15.77-1.7-31.07-1-47,13.81-1.41,28.26,1.88,42,0,.87-.21,2.49-1.82,4-1,.59-2.84-1.22-6.98,1-9v-33c8.13-.42,15.73-1,24-1,5.92-.57,13.37-1.65,20-1,3.12-4.46-1.41-14.35,0-20s-.64-13.83,0-20-.3-13.64,0-20-.13-12.53,0-19-.06-13.47,0-20-.02-13.5,0-20,0-12.54,0-19c0-5.72.52-12.03,1-17v-32c-1.44-14.85-1-31.42-1-47v-43c-9.59-.09-17.21.12-27,0s-17,2.95-17-9c-.33-3.4-1-7.92-1-12v-23c-14.91-2.06-30.7-.53-46-1v-46h-74c-31.49,3.05-65.69,1-98,1s-66.58,2.04-98-1c-3.85,0-10.42.44-14,0s-10.06,1.77-12-1c-2.96-4.23,1.31-13.63,0-19s.54-13.13,0-19,.14-12.94,0-19-.17-12.93,0-19-.61-13.11,0-19-1.44-13.57,0-19-3.05-15.64,0-20c66.62-4.25,136.17-.97,204-2,.08,15.72-.48,31.63,1,47h45c-.03,15.77,1.7,31.07,1,47,31.6-.94,63.14-1,95-1,11.05-1.07,25.65,1.35,37-1h4v-43c-2.38-24.64-1-51.58-1-77v-20c-14.45-.1-28.4,1.72-43,1-.17-15.05-1.63-29.75-1-45-15.27.73-29.89-1.13-45-1v-35c-.28-2.94-1.86-7.35-1-11h-389v46c-14.37,1.57-29.28.86-44,1-.17,15.05-1.63,29.75-1,45h-45v42c0,7,0,14,0,21s0,14.01,0,21-.03,14.02,0,21-.06,14.04,0,21-.13,14.1,0,21-.28,14.22,0,21-.62,14.49,0,21-1.36,15.08,0,21-3.21,15.42,0,20Z"/>
  <path class="st12" d="M707,151c0-2.56,1.15-9.5-1-11-.86,3.65.72,8.06,1,11Z"/>
  <path class="st11" d="M797,328c0-25.42,1.39-52.36-1-77,0,25.42-1.38,52.36,1,77Z"/>
  <path class="st2" d="M410,415c1.67-43.53,1.67-90.4,0-134-3.05,4.36,1.44,14.57,0,20s.61,13.11,0,19,.17,12.93,0,19-.14,12.94,0,19-.54,13.13,0,19-1.31,13.63,0,19-2.96,14.77,0,19Z"/>
  <path class="st18" d="M756,372c11.15,0,26.94,2.53,37-1-11.35,2.35-25.95-.07-37,1Z"/>
  <path class="st9" d="M632,416h-196c31.42,3.04,65.69,1,98,1s66.51,2.05,98-1Z"/>
  <path class="st8" d="M248,462h-21c2.57,3.67,17.55.33,21,0Z"/>
  <path class="st3" d="M753,498c0-4.08-.67-8.6-1-12,0,4.08.67,8.6,1,12Z"/>
  <path class="st13" d="M293,508c-3.66-.35-8.59-1-13-1,3.66.35,8.59,1,13,1Z"/>
  <path class="st1" d="M798,597c0-15.58.44-32.15-1-47,0,15.58-.44,32.15,1,47Z"/>
  <path class="st4" d="M797,646c.48-4.97,1-11.28,1-17-.48,4.97-1,11.28-1,17Z"/>
  <path class="st17" d="M227,765s1,0,1,0c0-17.22.6-35.52-1-52v52Z"/>
  <path class="st7" d="M228,784v-19s-1-.04-1,0c0,4.29-1.91,16.09,1,19Z"/>
  <path class="st16" d="M260,785s0-1,0-1h-32c3.1,3.1,11.47.34,16,1s11.27,0,16,0Z"/>
  <path class="st0" d="M260,785c3.9,0,7.72-.02,11-1-3.5-.5-7.46,0-11,0,0,0-.04,1,0,1Z"/>
  <path class="st14" d="M777,785c3.74,0,17.94,1.95,20-1-6.63-.65-14.08.43-20,1Z"/>
  <path class="st5" d="M273,814c0-6.9,2.89-23.72-1-29,1.33,9.25.15,20.24,1,29Z"/>
  <path class="st10" d="M748,829c6.36-.87,5-4.09,5-10-2.22,2.02-.41,6.16-1,9-1.51-.82-3.13.79-4,1Z"/>
  <path class="st32" d="M0,1024h1024V0H0v1024M707,151v35c15.11-.13,29.73,1.73,45,1-.63,15.25.83,29.95,1,45,14.6.72,28.55-1.1,43-1v20c2.39,24.64,1,51.58,1,77v43h-4c-10.06,3.53-25.85,1-37,1-31.86,0-63.4.06-95,1,.7-15.93-1.03-31.23-1-47h-45c-1.48-15.37-.92-31.28-1-47-67.83,1.03-137.38-2.25-204,2,1.67,43.6,1.67,90.47,0,134,1.94,2.77,8.42.56,12,1s10.15,0,14,0h270v46c15.3.47,31.09-1.06,46,1v23c.33,3.4,1,7.92,1,12,0,11.95,7.21,8.88,17,9s17.41-.09,27,0v43c1.44,14.85,1,31.42,1,47v32c0,5.72-.52,12.03-1,17,0,6.46.02,12.5,0,19s.06,13.47,0,20,.13,13.53,0,20,.3,12.64,0,19,.64,13.83,0,20,1.41,14.35,0,20,3.12,15.54,0,20c-2.06,2.95-16.26,1-20,1-8.27,0-15.87.58-24,1v33c0,5.91,1.36,9.13-5,10-13.74,1.88-28.19-1.41-42,0-.7,15.93,1.03,31.23,1,47h-388c.76-15.94-1.29-31.17-1-47h-45v-15c-.85-8.76.33-19.75-1-29-.22-.3-.65-.95-1-1-3.28.98-7.1,1-11,1-4.73,0-11.47.66-16,0s-12.9,2.1-16-1c-2.91-2.91-1-14.71-1-19v-164h138v43h45v94h204v-183h-295c.71-15.93-1.66-31.08-1-47h-25c-4.41,0-9.34-.65-13-1h-8v-45h-24c-3.45.33-18.43,3.67-21,0-3.21-4.58,1.36-14.08,0-20s.62-14.49,0-21,.28-14.22,0-21,.13-14.1,0-21,.06-14.04,0-21,.03-14.02,0-21,0-14.01,0-21,0-14,0-21,0-14,0-21v-42h45c-.63-15.25.83-29.95,1-45,14.72-.14,29.63.57,44-1v-46h389c2.15,1.5,1,8.44,1,11Z"/>
  <path class="st36" d="M227,462h45v45h8c4.41,0,9.34.65,13,1h25c-.66,15.92,1.71,31.07,1,47h295v183h-204v-94h-45v-43h-138v112c1.6,16.48,1,34.78,1,52v19h32c3.54,0,7.5-.5,11,0,.35.05.78.7,1,1,3.89,5.28,1,22.1,1,29v15h45c-.29,15.83,1.76,31.06,1,47h388c.03-15.77-1.7-31.07-1-47,13.81-1.41,28.26,1.88,42,0,.87-.21,2.49-1.82,4-1,.59-2.84-1.22-6.98,1-9v-33c8.13-.42,15.73-1,24-1,5.92-.57,13.37-1.65,20-1,3.12-4.46-1.41-14.35,0-20s-.64-13.83,0-20-.3-13.64,0-20-.13-12.53,0-19-.06-13.47,0-20-.02-13.5,0-20,0-12.54,0-19c0-5.72.52-12.03,1-17v-32c-1.44-14.85-1-31.42-1-47v-43c-9.59-.09-17.21.12-27,0s-17,2.95-17-9c-.33-3.4-1-7.92-1-12v-23c-14.91-2.06-30.7-.53-46-1v-46h-74c-31.49,3.05-65.69,1-98,1s-66.58,2.04-98-1c-3.85,0-10.42.44-14,0s-10.06,1.77-12-1c-2.96-4.23,1.31-13.63,0-19s.54-13.13,0-19,.14-12.94,0-19-.17-12.93,0-19-.61-13.11,0-19-1.44-13.57,0-19-3.05-15.64,0-20c66.62-4.25,136.17-.97,204-2,.08,15.72-.48,31.63,1,47h45c-.03,15.77,1.7,31.07,1,47,31.6-.94,63.14-1,95-1,11.05-1.07,25.65,1.35,37-1h4v-43c-2.38-24.64-1-51.58-1-77v-20c-14.45-.1-28.4,1.72-43,1-.17-15.05-1.63-29.75-1-45-15.27.73-29.89-1.13-45-1v-35c-.28-2.94-1.86-7.35-1-11h-389v46c-14.37,1.57-29.28.86-44,1-.17,15.05-1.63,29.75-1,45h-45v42c0,7,0,14,0,21s0,14.01,0,21-.03,14.02,0,21-.06,14.04,0,21-.13,14.1,0,21-.28,14.22,0,21-.62,14.49,0,21-1.36,15.08,0,21-3.21,15.42,0,20Z"/>
  <path class="st27" d="M707,151c0-2.56,1.15-9.5-1-11-.86,3.65.72,8.06,1,11Z"/>
  <path class="st20" d="M797,328c0-25.42,1.39-52.36-1-77,0,25.42-1.38,52.36,1,77Z"/>
  <path class="st31" d="M410,415c1.67-43.53,1.67-90.4,0-134-3.05,4.36,1.44,14.57,0,20s.61,13.11,0,19,.17,12.93,0,19-.14,12.94,0,19-.54,13.13,0,19-1.31,13.63,0,19-2.96,14.77,0,19Z"/>
  <path class="st23" d="M756,372c11.15,0,26.94,2.53,37-1-11.35,2.35-25.95-.07-37,1Z"/>
  <path class="st26" d="M632,416h-196c31.42,3.04,65.69,1,98,1s66.51,2.05,98-1Z"/>
  <path class="st24" d="M248,462h-21c2.57,3.67,17.55.33,21,0Z"/>
  <path class="st29" d="M753,498c0-4.08-.67-8.6-1-12,0,4.08.67,8.6,1,12Z"/>
  <path class="st28" d="M293,508c-3.66-.35-8.59-1-13-1,3.66.35,8.59,1,13,1Z"/>
  <path class="st37" d="M798,597c0-15.58.44-32.15-1-47,0,15.58-.44,32.15,1,47Z"/>
  <path class="st19" d="M797,646c.48-4.97,1-11.28,1-17-.48,4.97-1,11.28-1,17Z"/>
  <path class="st34" d="M227,765s1,0,1,0c0-17.22.6-35.52-1-52v52Z"/>
  <path class="st25" d="M228,784v-19s-1-.04-1,0c0,4.29-1.91,16.09,1,19Z"/>
  <path class="st22" d="M260,785s0-1,0-1h-32c3.1,3.1,11.47.34,16,1s11.27,0,16,0Z"/>
  <path class="st35" d="M260,785c3.9,0,7.72-.02,11-1-3.5-.5-7.46,0-11,0,0,0-.04,1,0,1Z"/>
  <path class="st33" d="M777,785c3.74,0,17.94,1.95,20-1-6.63-.65-14.08.43-20,1Z"/>
  <path class="st30" d="M273,814c0-6.9,2.89-23.72-1-29,1.33,9.25.15,20.24,1,29Z"/>
  <path class="st21" d="M748,829c6.36-.87,5-4.09,5-10-2.22,2.02-.41,6.16-1,9-1.51-.82-3.13.79-4,1Z"/>
</svg>